<svg xmlns="http://www.w3.org/2000/svg" width="31.375" height="31.376" viewBox="0 0 31.375 31.376"><defs><style>.a{fill:#35b439;}</style></defs><path class="a" d="M35.9,23.995a1.623,1.623,0,1,1-1.623,1.623A1.623,1.623,0,0,1,35.9,23.995Zm-11.36,11.36a1.623,1.623,0,1,0,1.623-1.623A1.623,1.623,0,0,0,24.541,35.354ZM28.125,29.2a1.623,1.623,0,1,0,1.623-1.623A1.623,1.623,0,0,0,28.125,29.2Zm23.94.492a16.071,16.071,0,0,0-8.356-5.639,1.623,1.623,0,1,0-.871,3.127,12.8,12.8,0,0,1,6.657,4.494,12.575,12.575,0,0,1,2.635,7.745,12.714,12.714,0,0,1-22.886,7.625l-.916-.2v4.054a15.957,15.957,0,0,0,23.737-21.2ZM27.246,53.206V45.492l7.762,1.725a1.623,1.623,0,1,0,.7-3.168l-9.737-2.164A1.623,1.623,0,0,0,24,43.469v9.737a1.623,1.623,0,1,0,3.246,0Z" transform="translate(-24 -23.994)"/></svg>