<?xml version="1.0" encoding="utf-8"?>
<!-- Generator: Adobe Illustrator 24.0.3, SVG Export Plug-In . SVG Version: 6.00 Build 0)  -->
<svg version="1.1" id="Calque_1" xmlns="http://www.w3.org/2000/svg" xmlns:xlink="http://www.w3.org/1999/xlink" x="0px" y="0px"
	 viewBox="0 0 512 512" style="enable-background:new 0 0 512 512;" xml:space="preserve">
<style type="text/css">
	.st0{fill:#FBBF00;}
</style>
<g id="Layer_1">
</g>
<g>
	<g>
		<g>
			<path class="st0" d="M310.7,256.2h-9.8v19.7h9.8c5.4,0,9.8-4.4,9.8-9.8C320.6,260.6,316.2,256.2,310.7,256.2z"/>
			<path class="st0" d="M477.6,203.7c-1.2-3.5-4.3-6.1-8-6.6l-142.5-18.9L260.6,45c-1.7-3.3-5.1-5.4-8.8-5.4c-3.7,0-7.1,2.1-8.8,5.5
				l-66.5,133.2L34,197.1c-3.7,0.5-6.8,3.1-8,6.6c-1.2,3.5-0.3,7.5,2.4,10.1l104.5,104.5l-28.5,142.4c-0.7,3.7,0.7,7.5,3.7,9.8
				c3,2.3,7,2.7,10.4,1l133.4-66.7l133.4,66.7c1.4,0.7,2.9,1,4.4,1c2.1,0,4.2-0.7,6-2c3-2.3,4.4-6.1,3.7-9.8l-28.5-142.4
				l104.5-104.5C477.9,211.2,478.8,207.3,477.6,203.7z M231.4,249.8l-29.5,78.7c-1.4,3.8-5.1,6.4-9.2,6.4c-4.1,0-7.8-2.5-9.2-6.4
				l-29.5-78.7c-1.9-5.1,0.6-10.8,5.7-12.7c5.1-1.9,10.8,0.7,12.7,5.7l20.3,54.2l20.3-54.2c1.9-5.1,7.6-7.6,12.7-5.7
				C230.7,239.1,233.3,244.7,231.4,249.8z M261.5,325.1c0,5.4-4.4,9.8-9.8,9.8s-9.8-4.4-9.8-9.8v-78.7c0-5.4,4.4-9.8,9.8-9.8
				s9.8,4.4,9.8,9.8V325.1z M310.7,295.6h-9.8v29.5c0,5.4-4.4,9.8-9.8,9.8c-5.4,0-9.8-4.4-9.8-9.8v-78.7c0-5.4,4.4-9.8,9.8-9.8h19.7
				c16.3,0,29.5,13.2,29.5,29.5C340.3,282.3,327,295.6,310.7,295.6z"/>
		</g>
	</g>
</g>
</svg>
