<svg xmlns="http://www.w3.org/2000/svg" width="24.091" height="21.175" viewBox="0 0 24.091 21.175"><defs><style>.a{fill:#dda2ff;}</style></defs><path class="a" d="M.7,162.281H19.15a.707.707,0,0,0,.452-.163c.177-.148,4.219-3.625,4.465-11.13H4.257C4.012,157.8.29,161,.251,161.034A.707.707,0,0,0,.7,162.281Z" transform="translate(0 -145.341)"/><path class="a" d="M110.08,32.4h-3.529v-.706a.706.706,0,1,0-1.412,0V32.4h-3.576v-.706a.706.706,0,1,0-1.412,0V32.4H96.623v-.706a.706.706,0,1,0-1.412,0V32.4H91.682a.7.7,0,0,0-.706.706v2.117h19.81V33.105A.7.7,0,0,0,110.08,32.4Z" transform="translate(-86.695 -30.988)"/><path class="a" d="M107.2,303.145a2.124,2.124,0,0,1-1.359.493H90.977v2.117a.705.705,0,0,0,.706.706h18.4a.705.705,0,0,0,.706-.706v-7.912A13.989,13.989,0,0,1,107.2,303.145Z" transform="translate(-86.696 -285.286)"/></svg>