<?xml version="1.0" encoding="utf-8"?>
<!-- Generator: Adobe Illustrator 24.0.3, SVG Export Plug-In . SVG Version: 6.00 Build 0)  -->
<svg version="1.1" id="Calque_1" xmlns="http://www.w3.org/2000/svg" xmlns:xlink="http://www.w3.org/1999/xlink" x="0px" y="0px"
	 viewBox="0 0 512 512" style="enable-background:new 0 0 512 512;" xml:space="preserve">
<style type="text/css">
	.st0{fill:#FD4A85;}
</style>
<g id="Layer_1">
</g>
<g id="Layer_2">
	<g>
		<path class="st0" d="M458.9,230.1L266.2,47.5c-5.7-5.4-14.6-5.4-20.3,0L53.1,230.1c-9.7,9.2-3.2,25.5,10.2,25.5h51v200.6
			c0,6.8,5.5,12.3,12.3,12.3h62.1c6.8,0,12.3-5.5,12.3-12.3V334.4c0-6.8,5.5-12.3,12.3-12.3h85.4c6.8,0,12.3,5.5,12.3,12.3v121.8
			c0,6.8,5.5,12.3,12.3,12.3h62.1c6.8,0,12.3-5.5,12.3-12.3V255.6h51C462.1,255.6,468.6,239.2,458.9,230.1z"/>
	</g>
</g>
</svg>
