<?xml version="1.0" encoding="utf-8"?>
<!-- Generator: Adobe Illustrator 24.0.3, SVG Export Plug-In . SVG Version: 6.00 Build 0)  -->
<svg version="1.1" id="Calque_1" xmlns="http://www.w3.org/2000/svg" xmlns:xlink="http://www.w3.org/1999/xlink" x="0px" y="0px"
	 viewBox="0 0 512 512" style="enable-background:new 0 0 512 512;" xml:space="preserve">
<style type="text/css">
	.st0{fill:#FF750C;}
</style>
<g id="Layer_1">
</g>
<g id="Square_Menu_1_">
	<path class="st0" d="M185.2,238.3H96.7c-29.3,0-53.1-23.8-53.1-53.1V96.7c0-29.3,23.8-53.1,53.1-53.1h88.5
		c29.3,0,53.1,23.8,53.1,53.1v88.5C238.3,214.5,214.5,238.3,185.2,238.3z"/>
	<path class="st0" d="M415.3,238.3h-88.5c-29.3,0-53.1-23.8-53.1-53.1V96.7c0-29.3,23.8-53.1,53.1-53.1h88.5
		c29.3,0,53.1,23.8,53.1,53.1v88.5C468.5,214.5,444.7,238.3,415.3,238.3z"/>
	<path class="st0" d="M185.2,468.5H96.7c-29.3,0-53.1-23.8-53.1-53.1v-88.5c0-29.3,23.8-53.1,53.1-53.1h88.5
		c29.3,0,53.1,23.8,53.1,53.1v88.5C238.3,444.7,214.5,468.5,185.2,468.5z"/>
	<path class="st0" d="M415.3,468.5h-88.5c-29.3,0-53.1-23.8-53.1-53.1v-88.5c0-29.3,23.8-53.1,53.1-53.1h88.5
		c29.3,0,53.1,23.8,53.1,53.1v88.5C468.5,444.7,444.7,468.5,415.3,468.5z"/>
</g>
</svg>
