<svg xmlns="http://www.w3.org/2000/svg" width="37.289" height="37.289" viewBox="0 0 37.289 37.289"><defs><style>.a{fill:#f1ff75;}</style></defs><path class="a" d="M191.924,315.275V302.092A1.092,1.092,0,0,0,190.832,301h-8.74A1.092,1.092,0,0,0,181,302.092v13.182a1.092,1.092,0,0,0,1.092,1.092h8.74A1.092,1.092,0,0,0,191.924,315.275Z" transform="translate(-167.818 -279.078)"/><path class="a" d="M121,1.092a7.736,7.736,0,0,0,5.193,7.291,5.461,5.461,0,0,0,3.547,2.5v4.48h-2.185a2.185,2.185,0,0,0-2.185,2.185v1.092a1.092,1.092,0,0,0,1.092,1.092h8.74a1.092,1.092,0,0,0,1.092-1.092V17.552a2.185,2.185,0,0,0-2.185-2.185h-2.185v-4.48a5.461,5.461,0,0,0,3.547-2.5,7.736,7.736,0,0,0,5.193-7.291A1.092,1.092,0,0,0,139.572,0H122.092A1.092,1.092,0,0,0,121,1.092Zm15.294,4.383V2.184h2.074A5.614,5.614,0,0,1,136.294,5.476ZM125.37,2.185V5.476A5.615,5.615,0,0,1,123.3,2.185Z" transform="translate(-112.188 0)"/><path class="a" d="M394.277,91a1.092,1.092,0,0,0-1.092,1.092v1.092h-1.092a1.092,1.092,0,0,0,0,2.185h1.092v1.092a1.092,1.092,0,1,0,2.185,0V95.37h1.093a1.092,1.092,0,0,0,0-2.185H395.37V92.092A1.092,1.092,0,0,0,394.277,91Z" transform="translate(-362.523 -84.372)"/><path class="a" d="M34.277,61a1.092,1.092,0,0,0-1.092,1.092v1.092H32.092a1.092,1.092,0,1,0,0,2.185h1.092v1.092a1.092,1.092,0,1,0,2.185,0V65.37h1.092a1.092,1.092,0,0,0,0-2.185H35.37V62.092A1.092,1.092,0,0,0,34.277,61Z" transform="translate(-28.742 -56.557)"/><path class="a" d="M370.9,361h-8.812A1.092,1.092,0,0,0,361,362.092V370.9A1.092,1.092,0,0,0,362.092,372H370.9A1.092,1.092,0,0,0,372,370.9v-8.812A1.092,1.092,0,0,0,370.9,361Z" transform="translate(-334.708 -334.708)"/><path class="a" d="M1.092,428.555H9.9A1.092,1.092,0,0,0,11,427.462v-4.37A1.092,1.092,0,0,0,9.9,422H1.092A1.092,1.092,0,0,0,0,423.092v4.37A1.092,1.092,0,0,0,1.092,428.555Z" transform="translate(0 -391.266)"/></svg>